<?xml version="1.0" encoding="UTF-8" standalone="no"?>
<!-- Created with Inkscape (http://www.inkscape.org/) -->

<svg
   version="1.1"
   id="svg1"
   width="240.91145"
   height="227.74934"
   viewBox="0 0 240.91145 227.74934"
   sodipodi:docname="ledger-small-light.svg"
   inkscape:version="1.4.3 (0d15f75, 2025-12-25)"
   xmlns:inkscape="http://www.inkscape.org/namespaces/inkscape"
   xmlns:sodipodi="http://sodipodi.sourceforge.net/DTD/sodipodi-0.dtd"
   xmlns="http://www.w3.org/2000/svg"
   xmlns:svg="http://www.w3.org/2000/svg">
  <defs
     id="defs1" />
  <sodipodi:namedview
     id="namedview1"
     pagecolor="#505050"
     bordercolor="#eeeeee"
     borderopacity="1"
     inkscape:showpageshadow="0"
     inkscape:pageopacity="0"
     inkscape:pagecheckerboard="0"
     inkscape:deskcolor="#505050"
     inkscape:zoom="0.78808594"
     inkscape:cx="172.57001"
     inkscape:cy="138.94424"
     inkscape:window-width="1920"
     inkscape:window-height="1009"
     inkscape:window-x="-8"
     inkscape:window-y="-8"
     inkscape:window-maximized="1"
     inkscape:current-layer="g1" />
  <g
     inkscape:groupmode="layer"
     inkscape:label="Image"
     id="g1"
     transform="translate(-347.9865,-359.12984)">
    <path
       style="fill:#e5e7eb;fill-opacity:1;stroke:none"
       d="m 430.34545,414.54926 c -3.57648,-1.55601 -4.95163,-4.54809 -3.41226,-7.42442 1.22701,-2.2927 -0.81273,-1.54363 47.56681,-17.46819 26.18085,-8.61767 38.84772,-12.34084 40.72554,-11.97045 2.95859,0.58357 7.77446,4.8202 7.77446,6.83938 0,4.37652 -6.7095,6.90878 -71.27423,26.89989 -16.22686,5.02431 -16.81464,5.11019 -21.38032,3.12379 z"
       id="path15" />
    <path
       style="fill:#e5e7eb;fill-opacity:1;stroke:none"
       d="m 453.94896,485.25 c -0.0281,-0.4125 -0.007,-6.825 0.0458,-14.25 0.0694,-9.67452 0.4677,-13.87369 1.40551,-14.81875 1.85775,-1.87213 72.27661,-25.83764 73.20168,-24.91259 0.36186,0.36186 0.51882,6.88677 0.50374,13.8303 -0.0173,7.95317 -0.26023,16.45554 -0.67948,16.87479 C 527.33761,463.06235 457.68699,486 455.46998,486 c -0.80849,0 -1.49295,-0.3375 -1.52102,-0.75 z"
       id="path14"
       sodipodi:nodetypes="scssssss" />
    <path
       style="fill:#4ade80;fill-opacity:1;stroke:none"
       d="m 526.14424,573.25 c -4.08469,-3.89044 -23.3577,-25.9434 -25.0724,-28.68886 -2.01754,-3.23033 0.10419,-7.95171 5.24781,-11.67774 6.52884,-4.72946 8.50936,-4.11052 17.80225,5.56341 l 8.1141,8.44681 4.60142,-5.69681 c 16.24802,-20.11597 34.70637,-41.18847 37.48002,-42.7881 2.80177,-1.61584 6.39063,-0.54973 10.17995,3.02406 3.63568,3.42889 5.0827,7.24578 4.1009,10.81723 -0.34019,1.2375 -8.2997,11.25 -17.68779,22.25 -9.38809,11 -20.64994,24.38045 -25.02633,29.73432 -4.37639,5.35388 -8.81108,10.19138 -9.85488,10.75 -3.27871,1.75472 -6.88636,1.12176 -9.88505,-1.73432 z"
       id="path3" />
    <path
       style="fill:#e5e7eb;fill-opacity:1;stroke:none"
       d="m 430,584.39665 c -3.025,-1.4211 -16.975,-7.77838 -31,-14.1273 -14.025,-6.34892 -31.125,-14.10007 -38,-17.22477 l -12.5,-5.68128 -0.25675,-69.51161 -0.25675,-69.5116 2.29568,-4.34119 c 1.26262,-2.38765 3.40316,-5.16742 4.75675,-6.17726 1.35359,-1.00984 22.26107,-8.11286 46.46107,-15.7845 24.2,-7.67164 50.05626,-15.99339 57.45836,-18.49278 14.08185,-4.75489 17.08645,-5.23583 21.72654,-3.47775 6.02769,2.28383 9.35613,8.12592 6.0651,10.64548 -1.53632,1.17618 -94.63719,30.64031 -106,33.54638 -4.21879,1.07897 -6.47675,2.74153 -3.72333,2.74153 0.56467,0 13.50217,5.44642 28.75,12.10316 15.24783,6.65673 29.07333,12.31099 30.72333,12.56501 2.8027,0.43147 56.93478,-17.14866 93.18028,-30.26158 C 536.37943,398.98296 543.24063,397 544.9274,397 c 4.23833,0 10.55168,5.80373 11.70309,10.75839 0.47823,2.05789 0.91161,23.54195 0.82284,46.64641 l -0.15881,41.3346 -13.03221,3.32048 -21.97413,5.9737 c -17.39363,5.18488 -17.59569,5.12479 -35.55015,10.59799 -27.40216,8.35321 -30.82506,9.54901 -32.27657,8.99201 C 453.2737,524.1678 453,521.38195 453,509.74829 v -14.31447 l 13.25,-4.28512 c 34.137,-11.04008 62.38018,-20.41559 63.81663,-21.18436 0.8698,-0.4655 8.64632,-4.18653 8.64632,-4.18653 l 0.63835,-9.6389 c 0.35109,-5.3014 0.64068,-14.67632 0.64353,-20.83315 0.005,-10.21137 -0.19481,-11.42672 -2.27244,-13.84211 l -2.2776,-2.64787 -43.4724,14.60708 c -30.58307,10.27617 -43.99126,15.22849 -45.22239,16.7029 -1.26057,1.50966 -1.76896,3.95263 -1.8178,8.73502 -0.79352,77.70856 -0.75029,102.96018 0.18027,105.30222 1.19842,3.01617 5.33493,4.54051 7.48318,2.75761 C 453.69684,566.00671 454,562.21965 454,549.37756 454,535.65839 454.23786,533 455.46537,533 c 0.80596,0 8.12385,-2.22367 16.26198,-4.94148 8.13814,-2.71782 16.70023,-5.3692 19.02687,-5.89196 4.60631,-1.03497 4.61533,-0.97114 0.61694,4.36188 -3.55491,4.7415 -6.32517,11.61508 -6.3492,15.75368 -0.0319,5.48925 2.2933,10.21959 7.89665,16.065 7.55917,7.8857 9.47298,10.57545 7.9061,11.11158 C 446.29266,588.11783 440.51499,589.33642 430,584.39665 Z"
       id="path16"
       sodipodi:nodetypes="ssscccsssssssssssssscccssscsscscscsscssssssssscs" />
    <path
       style="fill:#e5e7eb;fill-opacity:1;stroke:none"
       d="m 426.38459,472.74838 c 0.19559,-11.29863 0.36892,-20.32031 -0.21786,-21.84381 -0.84726,-2.19967 -5.35656,-4.525 -29.57285,-15.25 C 380.87864,428.69456 367.79106,423 367.51036,423 c -0.2807,0 -0.33683,10.00144 -0.3982,22.36216 L 367,467.94864 l 3.17141,1.64 c 1.74427,0.902 7.03177,3.12087 11.75,4.93082 4.71822,1.80995 16.45359,6.46991 26.07859,10.35545 9.625,3.88555 17.725,7.0775 18,7.09324 0.275,0.0157 0.20132,-8.63316 0.38459,-19.21977 z"
       id="path1" />
    <rect
       style="opacity:0;fill:#60a5fa;fill-opacity:1;stroke:none"
       id="rect16"
       width="59.003704"
       height="103.73237"
       x="366.70273"
       y="469.20667"
       ry="23.315985" />
  </g>
</svg>
