<?xml version="1.0" encoding="UTF-8" standalone="no"?>
<!-- Created with Inkscape (http://www.inkscape.org/) -->

<svg
   version="1.1"
   id="svg1"
   width="837.01349"
   height="227.74934"
   viewBox="0 0 837.01349 227.74934"
   sodipodi:docname="ledger-dark.svg"
   inkscape:version="1.4.3 (0d15f75, 2025-12-25)"
   xmlns:inkscape="http://www.inkscape.org/namespaces/inkscape"
   xmlns:sodipodi="http://sodipodi.sourceforge.net/DTD/sodipodi-0.dtd"
   xmlns="http://www.w3.org/2000/svg"
   xmlns:svg="http://www.w3.org/2000/svg">
  <defs
     id="defs1" />
  <sodipodi:namedview
     id="namedview1"
     pagecolor="#505050"
     bordercolor="#eeeeee"
     borderopacity="1"
     inkscape:showpageshadow="0"
     inkscape:pageopacity="0"
     inkscape:pagecheckerboard="0"
     inkscape:deskcolor="#505050"
     inkscape:zoom="1.1145218"
     inkscape:cx="405.55509"
     inkscape:cy="100.94015"
     inkscape:window-width="1920"
     inkscape:window-height="1009"
     inkscape:window-x="-8"
     inkscape:window-y="-8"
     inkscape:window-maximized="1"
     inkscape:current-layer="g15" />
  <g
     inkscape:groupmode="layer"
     inkscape:label="Image"
     id="g1"
     transform="translate(-347.9865,-359.12984)">
    <path
       style="fill:#1e2a38;fill-opacity:1;stroke:none"
       d="m 430.34545,414.54926 c -3.57648,-1.55601 -4.95163,-4.54809 -3.41226,-7.42442 1.22701,-2.2927 -0.81273,-1.54363 47.56681,-17.46819 26.18085,-8.61767 38.84772,-12.34084 40.72554,-11.97045 2.95859,0.58357 7.77446,4.8202 7.77446,6.83938 0,4.37652 -6.7095,6.90878 -71.27423,26.89989 -16.22686,5.02431 -16.81464,5.11019 -21.38032,3.12379 z"
       id="path15" />
    <path
       style="fill:#1e2a38;fill-opacity:1;stroke:none"
       d="m 453.94896,485.25 c -0.0281,-0.4125 -0.007,-6.825 0.0458,-14.25 0.0694,-9.67452 0.4677,-13.87369 1.40551,-14.81875 1.85775,-1.87213 72.27661,-25.83764 73.20168,-24.91259 0.36186,0.36186 0.51882,6.88677 0.50374,13.8303 -0.0173,7.95317 -0.26023,16.45554 -0.67948,16.87479 C 527.33761,463.06235 457.68699,486 455.46998,486 c -0.80849,0 -1.49295,-0.3375 -1.52102,-0.75 z"
       id="path14"
       sodipodi:nodetypes="scssssss" />
    <g
       id="g15">
      <path
         style="fill:#1e2a38;fill-opacity:1;stroke:none"
         d="M 1130,489.96725 V 446.9345 l 11.25,0.28275 11.25,0.28275 0.3027,5.26404 0.3028,5.26404 2.5526,-3.03365 c 5.3829,-6.39722 18.0191,-11.02797 26.0046,-9.52988 l 3.3373,0.62608 v 10.77542 10.22028 l -8.25,0.0214 c -7.5719,0.0196 -8.7084,-0.057 -13.75,2.56944 -4.2624,2.22055 -6.0063,3.86449 -7.75,7.30595 -2.1604,4.26378 -2.25,5.46799 -2.25,30.22879 V 533 h -11.5 -11.5 z"
         id="path13"
         sodipodi:nodetypes="ccccccsscccsssscccc" />
      <path
         style="fill:#1e2a38;fill-opacity:1;stroke:none"
         d="M 625.24231,471.75 625.5,410.5 h 12.5 12.5 l 0.25925,50.25 0.25925,50.25 H 679.50925 708 v 11 11 h -41.50769 -41.50768 z"
         id="path12" />
      <path
         id="path10"
         style="fill:#1e2a38;fill-opacity:1;stroke:none"
         d="m 1092.0511,477.72647 c -2.2255,-9.86762 -10.7668,-15.55167 -21.677,-14.42563 -9.3712,0.96719 -15.9402,6.21251 -18.3639,14.66368 L 1051.1396,481 h 20.8249 20.8249 z m -34.6853,55.38196 c -11.5828,-3.95097 -20.4718,-11.89247 -25.7276,-22.98505 -3.017,-6.3676 -3.1382,-7.12542 -3.1382,-19.62338 0,-12.88264 0.033,-13.06861 3.6292,-20.59938 8.5605,-17.92534 27.0859,-27.24682 47.7618,-24.03242 22.693,3.52802 35.0304,19.30734 35.0916,44.8818 L 1115,498 h -32.0674 -32.0674 l 0.6941,2.25 c 2.2298,7.22856 7.8742,12.7715 15.0515,14.78101 5.7563,1.61168 17.8746,0.80697 22.3892,-1.48673 1.925,-0.97803 4.5561,-2.73809 5.8469,-3.91125 l 2.3469,-2.13303 6.3388,7 6.3388,7 -2.5085,2.63068 c -3.4692,3.63824 -10.8969,7.51289 -17.8979,9.33641 -8.1689,2.12774 -25.3736,1.9355 -32.0992,-0.35866 z" />
      <path
         id="path8"
         style="fill:#1e2a38;fill-opacity:1;stroke:none"
         d="m 870.75143,512.43658 c 9.24696,-4.60796 14.41167,-16.03062 12.29489,-27.19232 -1.24098,-6.54367 -2.95669,-9.86148 -7.21473,-13.95173 -10.73499,-10.31198 -29.02555,-7.24442 -36.09861,6.0542 -3.13182,5.88838 -3.1684,19.36053 -0.0683,25.15327 6.15676,11.50429 19.42808,15.74634 31.08675,9.93658 z m -28.28357,21.22053 c -19.69694,-6.43573 -31.58974,-27.28477 -28.63236,-50.19482 2.09321,-16.21543 9.7377,-27.67097 22.76029,-34.10708 15.16113,-7.49304 31.79659,-5.39989 43.65421,5.49277 l 2.75,2.5262 V 433.68709 410 h 12 12 V 471.5 533 H 895.5 884 v -5.53333 -5.53334 l -3.53343,3.53343 c -1.94338,1.94338 -5.88088,4.74563 -8.75,6.22721 -4.46372,2.30502 -6.65975,2.73613 -15.21657,2.98719 -6.34227,0.18608 -11.47485,-0.18849 -14.03214,-1.02405 z" />
      <path
         id="path6"
         style="fill:#1e2a38;fill-opacity:1;stroke:none"
         d="m 780.37871,478.25 c -3.15673,-13.16519 -17.97884,-19.08806 -31.06032,-12.41162 -4.88302,2.49216 -6.69458,4.53977 -9.21137,10.41162 l -2.03595,4.75 h 21.48352 21.48351 z m -34.58101,54.8192 c -12.07218,-3.85995 -20.69832,-11.33273 -25.84524,-22.38959 -10.59799,-22.76715 -2.39184,-49.79182 18.31289,-60.30839 16.14178,-8.19891 36.59054,-6.66681 49.73925,3.72665 9.79327,7.74113 13.96073,17.10801 14.74988,33.15213 L 803.28323,498 H 771.14161 C 750.82312,498 739,498.3604 739,498.97976 c 0,2.92985 3.61621,9.25287 6.58832,11.5198 5.26896,4.01884 9.77284,5.50044 16.72063,5.50044 7.70648,0 14.53426,-1.92634 19.82612,-5.5936 2.26037,-1.56644 4.27626,-2.34185 4.72791,-1.8186 0.43306,0.50171 3.18793,3.50668 6.12193,6.67772 l 5.33456,5.76552 -2.40974,2.57964 c -3.40221,3.6421 -9.96853,7.30611 -17.03463,9.50532 -8.18542,2.54759 -25.03788,2.52375 -33.0774,-0.0468 z" />
      <path
         id="path4"
         style="fill:#1e2a38;fill-opacity:1;stroke:none"
         d="m 975.14156,511.83944 c 6.08425,-2.56896 12.75697,-7.08752 14.29141,-13.91089 1.13007,-8.74557 1.27761,-19.01541 -5.52981,-25.65883 -9.09584,-9.99338 -27.11304,-8.80517 -34.60907,2.48917 -8.22202,11.71146 -4.54223,31.16059 9.37077,36.72218 5.21505,1.92077 11.15339,1.74799 16.4767,0.35837 z m -21.60583,57.04781 c -7.82176,-0.96945 -15.30533,-3.75509 -21.79572,-8.24128 -3.64848,-1.88093 -7.70701,-4.83454 -3.12254,-8.51412 2.54177,-4.03977 5.12872,-8.05085 7.69544,-12.07476 5.55183,4.52195 12.02182,7.96081 19.16568,9.08448 9.15947,1.5403 19.56445,1.73145 27.53594,-3.71861 6.77218,-5.37865 7.19655,-14.55313 6.98168,-22.52389 0.23047,-2.40425 -2.39629,1.47348 -3.47543,1.94858 -14.17577,12.80285 -37.33241,10.54956 -51.07512,-1.75567 -8.16824,-7.09117 -13.41674,-17.65243 -13.18169,-28.5617 -0.71891,-9.63646 -0.0598,-19.7828 5.04454,-28.2611 7.43786,-14.22216 23.9352,-22.9731 39.8882,-20.83524 8.38977,0.61702 16.19331,4.73862 21.75908,10.98134 1.72189,2.21559 2.46348,2.09975 2.04425,-0.77688 V 447 h 22.09296 c -0.1977,30.83333 -0.316,59.36679 -0.5137,90.20012 -3.906,8.54293 -8.1539,19.97407 -16.59923,24.9393 -12.62295,7.61957 -28.11985,8.84801 -42.44434,6.74783 z"
         sodipodi:nodetypes="ccccccccccccccccccccccccc" />
    </g>
    <path
       style="fill:#22c55e;fill-opacity:1;stroke:none"
       d="m 526.14424,573.25 c -4.08469,-3.89044 -23.3577,-25.9434 -25.0724,-28.68886 -2.01754,-3.23033 0.10419,-7.95171 5.24781,-11.67774 6.52884,-4.72946 8.50936,-4.11052 17.80225,5.56341 l 8.1141,8.44681 4.60142,-5.69681 c 16.24802,-20.11597 34.70637,-41.18847 37.48002,-42.7881 2.80177,-1.61584 6.39063,-0.54973 10.17995,3.02406 3.63568,3.42889 5.0827,7.24578 4.1009,10.81723 -0.34019,1.2375 -8.2997,11.25 -17.68779,22.25 -9.38809,11 -20.64994,24.38045 -25.02633,29.73432 -4.37639,5.35388 -8.81108,10.19138 -9.85488,10.75 -3.27871,1.75472 -6.88636,1.12176 -9.88505,-1.73432 z"
       id="path3" />
    <path
       style="fill:#1e2a38;fill-opacity:1;stroke:none"
       d="m 430,584.39665 c -3.025,-1.4211 -16.975,-7.77838 -31,-14.1273 -14.025,-6.34892 -31.125,-14.10007 -38,-17.22477 l -12.5,-5.68128 -0.25675,-69.51161 -0.25675,-69.5116 2.29568,-4.34119 c 1.26262,-2.38765 3.40316,-5.16742 4.75675,-6.17726 1.35359,-1.00984 22.26107,-8.11286 46.46107,-15.7845 24.2,-7.67164 50.05626,-15.99339 57.45836,-18.49278 14.08185,-4.75489 17.08645,-5.23583 21.72654,-3.47775 6.02769,2.28383 9.35613,8.12592 6.0651,10.64548 -1.53632,1.17618 -94.63719,30.64031 -106,33.54638 -4.21879,1.07897 -6.47675,2.74153 -3.72333,2.74153 0.56467,0 13.50217,5.44642 28.75,12.10316 15.24783,6.65673 29.07333,12.31099 30.72333,12.56501 2.8027,0.43147 56.93478,-17.14866 93.18028,-30.26158 C 536.37943,398.98296 543.24063,397 544.9274,397 c 4.23833,0 10.55168,5.80373 11.70309,10.75839 0.47823,2.05789 0.91161,23.54195 0.82284,46.64641 l -0.15881,41.3346 -13.03221,3.32048 -21.97413,5.9737 c -17.39363,5.18488 -17.59569,5.12479 -35.55015,10.59799 -27.40216,8.35321 -30.82506,9.54901 -32.27657,8.99201 C 453.2737,524.1678 453,521.38195 453,509.74829 v -14.31447 l 13.25,-4.28512 c 34.137,-11.04008 62.38018,-20.41559 63.81663,-21.18436 0.8698,-0.4655 8.64632,-4.18653 8.64632,-4.18653 l 0.63835,-9.6389 c 0.35109,-5.3014 0.64068,-14.67632 0.64353,-20.83315 0.005,-10.21137 -0.19481,-11.42672 -2.27244,-13.84211 l -2.2776,-2.64787 -43.4724,14.60708 c -30.58307,10.27617 -43.99126,15.22849 -45.22239,16.7029 -1.26057,1.50966 -1.76896,3.95263 -1.8178,8.73502 -0.79352,77.70856 -0.75029,102.96018 0.18027,105.30222 1.19842,3.01617 5.33493,4.54051 7.48318,2.75761 C 453.69684,566.00671 454,562.21965 454,549.37756 454,535.65839 454.23786,533 455.46537,533 c 0.80596,0 8.12385,-2.22367 16.26198,-4.94148 8.13814,-2.71782 16.70023,-5.3692 19.02687,-5.89196 4.60631,-1.03497 4.61533,-0.97114 0.61694,4.36188 -3.55491,4.7415 -6.32517,11.61508 -6.3492,15.75368 -0.0319,5.48925 2.2933,10.21959 7.89665,16.065 7.55917,7.8857 9.47298,10.57545 7.9061,11.11158 C 446.29266,588.11783 440.51499,589.33642 430,584.39665 Z"
       id="path16"
       sodipodi:nodetypes="ssscccsssssssssssssscccssscsscscscsscssssssssscs" />
    <path
       style="fill:#1e2a38;fill-opacity:1;stroke:none"
       d="m 426.38459,472.74838 c 0.19559,-11.29863 0.36892,-20.32031 -0.21786,-21.84381 -0.84726,-2.19967 -5.35656,-4.525 -29.57285,-15.25 C 380.87864,428.69456 367.79106,423 367.51036,423 c -0.2807,0 -0.33683,10.00144 -0.3982,22.36216 L 367,467.94864 l 3.17141,1.64 c 1.74427,0.902 7.03177,3.12087 11.75,4.93082 4.71822,1.80995 16.45359,6.46991 26.07859,10.35545 9.625,3.88555 17.725,7.0775 18,7.09324 0.275,0.0157 0.20132,-8.63316 0.38459,-19.21977 z"
       id="path1" />
    <rect
       style="opacity:0;fill:#60a5fa;fill-opacity:1;stroke:none"
       id="rect16"
       width="59.003704"
       height="103.73237"
       x="366.70273"
       y="469.20667"
       ry="23.315985" />
  </g>
</svg>
